HIERARCHY
ROOT Hips
{
  OFFSET 263.056 91.6644 -274.608
  CHANNELS 6 Xposition Yposition Zposition Zrotation Xrotation Yrotation
  JOINT LeftUpLeg
  {
    OFFSET 8.64259 1.95398 -2.38835
    CHANNELS 3 Zrotation Xrotation Yrotation
    JOINT LeftLeg
    {
      OFFSET 43.7702 0 0
      CHANNELS 3 Zrotation Xrotation Yrotation
      JOINT LeftFoot
      {
        OFFSET 40.6238 0 0
        CHANNELS 3 Zrotation Xrotation Yrotation
        JOINT LeftToeBase
        {
          OFFSET 12.7242 0 0
          CHANNELS 3 Zrotation Xrotation Yrotation
          End Site
          {
            OFFSET 0 0 0
          }
        }
      }
    }
  }
  JOINT RightUpLeg
  {
    OFFSET -8.2249 1.95398 -2.59336
    CHANNELS 3 Zrotation Xrotation Yrotation
    JOINT RightLeg
    {
      OFFSET 43.5653 0 0
      CHANNELS 3 Zrotation Xrotation Yrotation
      JOINT RightFoot
      {
        OFFSET 40.6238 0 0
        CHANNELS 3 Zrotation Xrotation Yrotation
        JOINT RightToeBase
        {
          OFFSET 12.7242 0 0
          CHANNELS 3 Zrotation Xrotation Yrotation
          End Site
          {
            OFFSET 0 0 0
          }
        }
      }
    }
  }
  JOINT Spine
  {
    OFFSET 0.165834 0.87714 6.61349
    CHANNELS 3 Zrotation Xrotation Yrotation
    JOINT Spine1
    {
      OFFSET 7.38963 1.71661e-005 0
      CHANNELS 3 Zrotation Xrotation Yrotation
      JOINT Spine2
      {
        OFFSET 11.9445 1.14441e-005 0
        CHANNELS 3 Zrotation Xrotation Yrotation
        JOINT Spine3
        {
          OFFSET 14.7254 4.19617e-005 0
          CHANNELS 3 Zrotation Xrotation Yrotation
          JOINT Spine4
          {
            OFFSET 10.9679 0 0
            CHANNELS 3 Zrotation Xrotation Yrotation
            JOINT RightShoulder
            {
              OFFSET 2.46616 -1.6653 3.69651
              CHANNELS 3 Zrotation Xrotation Yrotation
              JOINT RightArm
              {
                OFFSET 13.0012 0 0
                CHANNELS 3 Zrotation Xrotation Yrotation
                JOINT RightForeArm
                {
                  OFFSET 28.7848 1.52588e-005 0
                  CHANNELS 3 Zrotation Xrotation Yrotation
                  JOINT RightHand
                  {
                    OFFSET 26.5688 1.52588e-005 0
                    CHANNELS 3 Zrotation Xrotation Yrotation
                    End Site
                    {
                      OFFSET 0 0 0
                    }
                  }
                }
              }
            }
            JOINT LeftShoulder
            {
              OFFSET 2.38034 -1.29275 -3.7523
              CHANNELS 3 Zrotation Xrotation Yrotation
              JOINT LeftArm
              {
                OFFSET 16.3182 6.10352e-005 0
                CHANNELS 3 Zrotation Xrotation Yrotation
                JOINT LeftForeArm
                {
                  OFFSET 27.0901 0 0
                  CHANNELS 3 Zrotation Xrotation Yrotation
                  JOINT LeftHand
                  {
                    OFFSET 24.5451 1.52588e-005 0
                    CHANNELS 3 Zrotation Xrotation Yrotation
                    End Site
                    {
                      OFFSET 0 0 0
                    }
                  }
                }
              }
            }
            JOINT Neck
            {
              OFFSET 5.0226 -0.0266342 0
              CHANNELS 3 Zrotation Xrotation Yrotation
              JOINT Head
              {
                OFFSET 6.69364 2.86102e-005 0
                CHANNELS 3 Zrotation Xrotation Yrotation
                End Site
                {
                  OFFSET 0 0 0
                }
              }
            }
          }
        }
      }
    }
  }
}
MOTION
Frames:	14
Frame Time:	0.0416667
44.2496 97.1342 20.1776 90.5726 -35.2098 89.1481 -172.681 5.73596 90.8305 -10.4973 9.73962 -0.112898 61.5306 2.5475 6.20092 33.2409 5.23786 -10.6902 177.558 5.42677 88.1056 -13.9959 1.70098 -2.0009 66.6325 -2.22251 -1.20302 29.7689 -0.496068 10.2406 -0.100023 7.14786 -89.8679 12.5802 -0.135691 0.279629 0.909245 -0.123234 0.285322 -21.6258 -0.213455 0.225924 -1.61315 -0.213436 0.225922 82.5353 -52.0146 -111.414 27.623 -6.48545 9.20786 -8.24313 -12.4871 -40.2045 -5.82143 -0.507505 3.36978 -102.96 -44.1068 57.2081 -30.1909 4.76253 7.28657 4.47195 4.97779 -32.5199 10.645 0.73169 2.82704 7.59696 -1.84116 3.43928 -1.37456 -2.54782 -2.39316 
44.2185 97.1314 20.2005 90.5445 -35.2127 89.1186 -172.857 5.89344 90.7186 -10.8069 9.00704 0.127885 61.6772 2.54997 5.61596 32.9884 5.01054 -10.9367 177.539 5.37871 88.1482 -13.7834 2.22853 -1.93973 66.7121 -2.26467 -1.22353 29.5588 -0.57319 11.0283 -0.0883734 7.14714 -89.8745 12.5796 -0.1157 0.264202 0.908678 -0.103924 0.26903 -21.6264 -0.189753 0.217218 -1.61372 -0.189748 0.217211 83.0119 -51.8818 -110.762 27.8433 -6.43478 9.01515 -8.13945 -12.5315 -39.7408 -5.85819 -0.492038 2.92421 -103.25 -44.1812 56.8055 -30.1789 4.79857 7.56915 4.42833 4.85493 -32.6934 11.1405 0.740372 2.63493 7.8552 -1.88928 3.39833 -1.59641 -2.58716 -2.26331 
44.0248 97.0866 20.1046 91.0237 -35.3553 89.4167 -172.865 5.91151 90.7551 -11.264 10.0292 0.0204402 60.9642 2.94773 7.3419 34.5206 6.41955 -11.7238 177.666 5.85455 88.2151 -15.185 1.52873 -2.07645 66.9528 -2.29344 -1.23884 29.2738 -0.559821 9.85617 -0.0742218 7.20221 -89.8639 12.4695 -0.082674 0.281242 0.798485 -0.070248 0.284604 -21.7365 -0.163383 0.243394 -1.72385 -0.163398 0.243386 82.5853 -52.2288 -111.268 27.5811 -6.48643 9.22214 -8.35386 -13.0158 -39.7898 -5.90952 -0.519571 3.46644 -103.078 -44.0997 57.027 -30.4468 4.68887 8.22105 4.83015 4.94065 -34.0219 10.4337 0.773532 3.31565 7.64941 -1.96158 3.09801 -1.23826 -2.59156 -1.92994 
43.679 96.9838 19.6822 91.7324 -35.8103 89.7518 -172.946 6.48314 90.5737 -13.0075 8.85405 0.0298103 60.9185 3.10562 6.6993 35.2649 7.09687 -11.4589 177.821 7.00038 88.1384 -17.6655 1.04514 -2.33167 68.0264 -2.64343 -1.41798 27.0038 -1.00324 11.3447 0.00468848 7.3114 -89.8549 12.2509 0.078159 0.280837 0.579879 0.0904198 0.277127 -21.955 -0.00985246 0.291343 -1.94237 -0.00986317 0.291341 82.6268 -52.2481 -111.201 27.7477 -6.71514 9.50145 -8.49698 -12.8963 -40.5921 -6.7312 -0.586316 3.78843 -103.092 -43.9974 56.9592 -30.9742 4.33947 9.15202 4.99217 4.29771 -35.6687 11.2301 0.81837 3.23705 7.63499 -2.11333 2.71153 -1.08627 -2.66042 -1.78308 
42.9124 96.8906 18.8006 92.0602 -37.1607 89.4017 -173.134 8.59195 90.0086 -16.1966 7.44063 -0.23553 58.7032 1.35465 5.76795 39.2403 10.7386 -10.8084 178.478 9.3089 87.8186 -20.6455 -0.330368 -3.27591 65.8147 -2.02669 -1.09949 31.2185 -0.278581 10.2269 0.0956918 7.47704 -89.7843 11.9192 0.291975 0.398786 0.248214 0.30925 0.385544 -22.2866 0.158629 0.4681 -2.2739 0.158623 0.468097 82.6261 -51.6196 -111.418 28.5363 -7.76288 10.5459 -10.9634 -13.9959 -44.6916 -7.40097 -0.663513 4.21653 -102.727 -43.7609 57.4025 -31.8382 3.57812 10.2067 4.46581 1.93147 -38.6505 12.9291 0.877358 2.83853 7.57534 -2.01651 1.91876 0.317426 -2.40481 -1.17182 
41.7661 96.7452 17.3377 91.9547 -38.5155 89.2927 -172.946 12.7578 90.0269 -21.8335 10.0393 -0.942727 57.935 1.39061 6.91669 39.1149 11.2488 -2.91812 179.645 12.7291 87.8867 -23.8957 -0.674234 -4.35254 62.6036 -0.843367 -0.407288 33.9056 0.117311 11.0753 -0.0199082 7.78412 -89.6632 11.3048 0.117339 0.658964 -0.366304 0.146217 0.65316 -22.9001 -0.0861479 0.663765 -2.88748 -0.0861315 0.663767 82.568 -51.4773 -111.553 29.4006 -10.1053 11.0588 -10.5128 -11.6614 -49.1129 -11.7485 -0.775873 2.34378 -102.748 -43.0915 57.0632 -32.1652 0.414765 12.459 4.0905 -1.62639 -46.241 14.6784 1.12505 3.7258 8.1268 -1.39076 -0.736195 2.73993 -1.17656 0.529698 
40.3964 96.614 15.1167 89.7514 -41.7045 88.7011 -173.7 17.845 90.5885 -24.6552 12.9784 -0.681654 57.8978 0.524059 5.33162 38.267 10.1703 -5.7609 -178.973 17.2186 88.3733 -24.9219 -3.02641 -4.77609 59.9978 -0.117461 0.045202 32.7084 -0.00625453 8.88334 -0.0952955 7.98123 -89.5651 10.9105 0.0114435 0.863813 -0.760765 0.0494594 0.862466 -23.2937 -0.248689 0.827323 -3.28111 -0.248672 0.827319 82.2641 -51.7003 -111.922 30.3747 -10.9804 12.1486 -6.74088 -8.9864 -50.3795 -15.0474 -0.74897 0.663464 -102.122 -42.5291 57.7641 -31.1464 -2.89639 13.7516 3.31478 -3.81417 -55.4991 15.376 1.2112 3.95396 7.42291 -0.0572961 -2.37794 5.86389 0.468755 0.511598 
38.6227 95.469 12.2282 85.8226 -47.022 88.1948 -174.66 25.3076 93.0844 -29.5377 16.5558 -0.17148 55.9606 -1.97265 4.75965 38.0706 10.0153 -5.08628 -176.493 24.0379 90.5834 -28.1223 -3.01897 -4.90617 60.8641 -1.01913 -0.509047 34.3275 0.209603 6.52749 0.0234146 8.09473 -89.4621 10.6819 0.294494 1.04139 -0.989448 0.340041 1.02741 -23.5212 -0.0320781 1.08175 -3.50852 -0.0320808 1.08174 80.0103 -54.2006 -114.265 28.6897 -11.2611 14.2901 -1.34917 -4.1275 -51.6975 -15.8002 -0.660694 -0.302388 -100.339 -41.1256 59.9021 -28.7298 -5.39285 14.6178 6.15846 -2.32559 -66.1993 16.6746 1.37756 4.39436 7.68745 1.22367 -4.52456 9.27027 2.25271 1.08733 
35.9707 92.8253 9.01439 85.0712 -48.1706 87.5852 -174.311 33.5388 93.4713 -38.4881 17.3661 -1.15004 55.9367 -1.6499 5.3531 38.4983 10.5318 -3.91154 -175.768 31.2298 91.6159 -43.432 3.65928 -5.48389 67.6482 -3.82308 -2.04536 45.3424 1.54393 6.01969 -0.107212 8.4703 -89.1598 9.92922 0.167716 1.65494 -1.74273 0.240376 1.64595 -24.2697 -0.337368 1.62885 -4.25702 -0.33734 1.62886 77.8954 -54.8985 -116.973 27.7286 -11.2825 15.1986 0.491339 -1.83729 -55.2198 -19.1308 -0.887657 0.159012 -100.018 -39.9812 59.9002 -24.1244 -4.47348 12.759 9.0501 -0.86793 -71.1974 19.4977 1.86273 5.66861 10.4925 1.40049 -3.13438 10.7689 1.8214 -1.99963 
33.5186 89.4123 6.27443 87.8322 -49.1291 89.0825 -173.522 39.0124 92.9641 -47.1446 17.7884 -1.78351 55.7253 -1.25955 7.45329 41.065 13.03 -5.09906 -177.051 33.1481 92.5322 -61.8344 10.9552 -5.50491 69.9642 -5.9702 -3.08291 48.0872 1.40961 2.07513 0.0799906 8.84022 -88.8957 9.18224 0.654028 2.14055 -2.49025 0.747574 2.10972 -25.0113 -0.0193716 2.23811 -4.99861 -0.0193466 2.23812 76.4319 -54.3834 -119.222 26.1964 -11.5227 13.6498 0.882069 -0.0770006 -60.195 -21.61 -0.691258 -1.5846 -101.321 -39.8484 57.7651 -23.4628 -2.58096 10.0556 3.29888 -2.79712 -60.9035 25.7767 2.15619 4.57416 10.5541 0.662685 -3.35214 11.946 0.970405 -3.28281 
31.371 86.6741 3.69297 90.5761 -51.1831 90.0428 -172.537 41.4771 91.6598 -51.6632 14.8255 -1.99975 57.3664 0.663443 9.30438 41.2135 12.8983 -7.57948 -178.734 29.9104 91.6343 -74.663 14.5455 -5.77238 68.1779 -6.94806 -3.67597 52.5302 2.00769 3.74579 0.278861 8.82969 -88.7509 9.19618 1.11561 2.39447 -2.4764 1.21987 2.34307 -24.9945 0.34467 2.6189 -4.98182 0.344674 2.61889 77.9484 -52.0813 -118.034 25.6022 -14.5073 10.3094 -6.5459 0.933125 -73.5622 -23.6576 -1.02931 -0.0305104 -102.323 -41.7769 57.1057 -28.6917 1.50269 12.9533 -3.39995 -8.61492 -47.2336 27.5493 1.44346 1.36754 9.50227 0.853046 -2.33531 11.6859 0.769894 -4.33035 
28.4628 86.2109 0.734553 93.542 -50.6991 92.63 -172.977 41.1123 92.002 -49.0895 14.4562 -1.95795 57.1836 0.245579 9.33128 37.2809 9.00045 -9.65269 178.954 22.0764 89.7941 -77.9079 11.6999 -5.44109 65.1663 -6.11627 -3.42953 52.4328 1.81956 2.36745 0.533053 8.78953 -89.0709 9.28053 1.47991 1.7318 -2.39063 1.55469 1.665 -24.9195 0.891143 2.09638 -4.90688 0.891148 2.09638 81.2568 -47.6991 -114.924 27.2434 -16.417 7.18692 -12.3082 -0.230818 -94.8724 -23.2035 -0.974168 -0.176379 -103.078 -42.3391 56.2067 -38.7969 8.07175 21.67 -6.25854 -8.34148 -45.5119 30.4059 1.27287 0.259241 9.17989 -0.15378 -1.6775 10.0252 -0.133182 -2.91839 
23.4298 89.7305 -3.0316 94.4809 -48.5864 94.7759 -174.456 33.8666 94.3648 -27.7689 16.3401 -1.16314 48.59 -8.38652 1.21462 25.3449 -2.53018 -8.06003 177.326 13.6926 89.529 -67.2119 6.28554 -4.40759 63.7353 -3.75252 -2.16413 47.1892 1.92788 8.38205 0.870216 8.62478 -89.6251 9.62137 1.90402 0.59709 -2.04825 1.92846 0.512683 -24.5913 1.63652 1.14183 -4.5786 1.63654 1.14184 82.349 -45.9546 -113.929 28.7768 -17.6486 5.45738 -18.3254 12.6457 -109.056 -21.2372 -1.33759 2.5039 -101.414 -41.6545 58.4538 -46.873 11.1511 32.2414 -5.71995 -5.33458 -57.4631 31.1618 1.41688 0.64189 4.74232 -1.85158 -0.939792 11.0055 -1.80022 -1.30076 
16.536 93.6913 -7.65095 92.5598 -45.1753 92.6915 -174.728 27.6753 94.1712 -7.79254 15.8743 -1.10624 37.6119 -16.1651 -6.27409 24.7319 -4.9054 1.68706 178.149 11.2367 89.0245 -52.3772 -1.15155 -4.15085 58.0276 -0.332825 -0.0913177 48.6949 2.29363 9.44497 0.817885 8.23842 -89.8992 10.3975 1.67553 0.0534412 -1.27236 1.67626 -0.0203856 -23.8155 1.58198 0.554661 -3.80283 1.582 0.55466 82.683 -48.3813 -112.492 29.3166 -19.2397 9.05808 -20.016 13.5865 -110.215 -21.0585 -1.39237 2.87922 -97.5157 -40.5963 64.1781 -48.623 9.16486 37.1518 -2.28523 -3.85007 -68.2417 33.4181 2.25499 2.88508 0.880877 -3.19048 1.09906 11.0107 -3.47022 -1.37825 
